HIERARCHY
ROOT joint_Root
{
	OFFSET 0.0 0.0 0.0
	CHANNELS 6 Xposition Yposition Zposition Zrotation Xrotation Yrotation 
	JOINT Hips
	{
		OFFSET 4.5925 91.4895 -427.239
		CHANNELS 6 Xposition Yposition Zposition Zrotation Xrotation Yrotation 
		JOINT Spine
		{
			OFFSET 15.7357 0.0 0.0
			CHANNELS 6 Xposition Yposition Zposition Zrotation Xrotation Yrotation 
			JOINT Chest
			{
				OFFSET 8.98455 -0.406207 0.0
				CHANNELS 6 Xposition Yposition Zposition Zrotation Xrotation Yrotation 
				JOINT Neck
				{
					OFFSET 16.3773 0.0 0.0
					CHANNELS 6 Xposition Yposition Zposition Zrotation Xrotation Yrotation 
					JOINT Head
					{
						OFFSET 6.45672 0.0 0.0
						CHANNELS 6 Xposition Yposition Zposition Zrotation Xrotation Yrotation 
						End Site
						{
							OFFSET 0.0 0.0 0.0
						}
					}
				}
				JOINT Shoulder_L
				{
					OFFSET 12.9942 -0.242716 4.98039
					CHANNELS 6 Xposition Yposition Zposition Zrotation Xrotation Yrotation 
					JOINT UpperArm_L
					{
						OFFSET 5.34809 0.0 0.0
						CHANNELS 6 Xposition Yposition Zposition Zrotation Xrotation Yrotation 
						JOINT LowerArm_L
						{
							OFFSET 24.3286 1.87007e-05 0.0
							CHANNELS 6 Xposition Yposition Zposition Zrotation Xrotation Yrotation 
							JOINT Hand_L
							{
								OFFSET 22.2916 0.0 0.0
								CHANNELS 6 Xposition Yposition Zposition Zrotation Xrotation Yrotation 
								End Site
								{
									OFFSET 0.0 0.0 0.0
								}
							}
						}
					}
				}
				JOINT Shoulder_R
				{
					OFFSET 12.9945 -0.242716 -4.98039
					CHANNELS 6 Xposition Yposition Zposition Zrotation Xrotation Yrotation 
					JOINT UpperArm_R
					{
						OFFSET -5.34813 0.0 0.0
						CHANNELS 6 Xposition Yposition Zposition Zrotation Xrotation Yrotation 
						JOINT LowerArm_R
						{
							OFFSET -24.3289 0.000322201 0.0
							CHANNELS 6 Xposition Yposition Zposition Zrotation Xrotation Yrotation 
							JOINT Hand_R
							{
								OFFSET -22.2915 -0.000108084 0.0
								CHANNELS 6 Xposition Yposition Zposition Zrotation Xrotation Yrotation 
								End Site
								{
									OFFSET 0.0 0.0 0.0
								}
							}
						}
					}
				}
			}
		}
		JOINT UpperLeg_L
		{
			OFFSET -2.19248 -6.46944 0.0
			CHANNELS 6 Xposition Yposition Zposition Zrotation Xrotation Yrotation 
			JOINT LowerLeg_L
			{
				OFFSET 39.0811 0.0 -1.23785e-05
				CHANNELS 6 Xposition Yposition Zposition Zrotation Xrotation Yrotation 
				JOINT Foot_L
				{
					OFFSET 40.9854 0.0 -1.26872e-05
					CHANNELS 6 Xposition Yposition Zposition Zrotation Xrotation Yrotation 
					JOINT Toes_L
					{
						OFFSET 11.7543 0.0 0.0
						CHANNELS 6 Xposition Yposition Zposition Zrotation Xrotation Yrotation 
						End Site
						{
							OFFSET 0.0 0.0 0.0
						}
					}
				}
			}
		}
		JOINT UpperLeg_R
		{
			OFFSET -2.19251 6.46944 0.0
			CHANNELS 6 Xposition Yposition Zposition Zrotation Xrotation Yrotation 
			JOINT LowerLeg_R
			{
				OFFSET -39.0811 -0.00228153 -0.0401928
				CHANNELS 6 Xposition Yposition Zposition Zrotation Xrotation Yrotation 
				JOINT Foot_R
				{
					OFFSET -40.9854 0.0 0.0
					CHANNELS 6 Xposition Yposition Zposition Zrotation Xrotation Yrotation 
					JOINT Toes_R
					{
						OFFSET -11.7543 0.0 0.0
						CHANNELS 6 Xposition Yposition Zposition Zrotation Xrotation Yrotation 
						End Site
						{
							OFFSET 0.0 0.0 0.0
						}
					}
				}
			}
		}
	}
}
MOTION
Frames:	7
Frame Time:	0.0333333
0.000000 0.000000 0.000000 0.000000 0.000000 -0.000000 -1.434450 89.970100 1.242170 89.365600 -2.195290 10.406300 15.735700 0.000005 -0.000001 88.281600 78.827200 -87.940700 8.984550 -0.406207 -0.000000 14.572200 -0.641571 0.764192 16.377300 -0.000001 -0.000001 6.185400 -4.327010 1.196040 6.456720 -0.000001 -0.000000 -4.928420 -3.462890 0.960130 12.994200 -0.242716 4.980390 -91.168900 5.631660 -78.254500 5.348090 -0.000007 -0.000001 -58.815400 35.731700 -28.720200 24.328600 0.000019 0.000005 10.737000 21.216300 -27.653300 22.291600 -0.000001 0.000005 9.100350 5.264550 1.045010 12.994500 -0.242716 -4.980390 88.924800 10.292600 -84.003500 -5.348130 -0.000001 -0.000004 -58.207900 36.137500 -21.172400 -24.328900 0.000322 -0.000009 1.624160 4.357370 -20.477700 -22.291500 -0.000108 -0.000004 16.224600 5.425670 -3.791070 -2.192480 -6.469440 -0.000000 -174.054000 -12.278300 -0.808515 39.081100 -0.000007 -0.000012 -0.254634 0.369915 34.542400 40.985400 -0.000006 -0.000013 -0.657001 3.324160 -72.896400 11.754300 -0.000000 0.000003 -0.000240 -0.002160 -16.658600 -2.192510 6.469440 -0.000001 174.146000 19.967400 -179.381000 -39.081100 -0.002282 -0.040193 -0.191147 0.289119 33.922200 -40.985400 0.000008 0.000006 4.660880 10.797800 -73.888100 -11.754300 -0.000006 -0.000006 -0.001795 -0.026119 -17.635200
0.000000 0.000000 0.000000 0.000000 0.000000 -0.000000 -1.441140 89.974200 1.208450 89.369400 -2.225450 10.399400 15.735700 0.000005 -0.000001 88.202600 78.833200 -87.873100 8.984550 -0.406207 -0.000000 14.559300 -0.672355 0.745234 16.377300 -0.000001 -0.000001 6.163940 -4.375840 1.181780 6.456720 -0.000001 -0.000000 -5.015890 -3.524130 0.989399 12.994200 -0.242716 4.980390 -91.158400 5.572880 -78.237500 5.348090 -0.000007 -0.000001 -58.849700 35.286700 -28.678300 24.328600 0.000019 0.000005 11.014100 21.015600 -28.490100 22.291600 -0.000001 0.000005 9.298770 5.266780 0.984990 12.994500 -0.242716 -4.980390 88.928300 10.237400 -83.991600 -5.348130 -0.000001 -0.000004 -58.227700 36.139800 -21.197600 -24.328900 0.000322 -0.000009 1.619660 4.342420 -20.489900 -22.291500 -0.000108 -0.000004 16.162600 5.425770 -3.794320 -2.192480 -6.469440 -0.000000 -174.060000 -12.270900 -0.834374 39.081100 -0.000007 -0.000012 -0.255716 0.371596 34.534500 40.985400 -0.000006 -0.000013 -0.665981 3.307360 -72.869400 11.754300 -0.000000 0.000003 -0.000253 -0.002252 -16.661900 -2.192510 6.469440 -0.000001 174.171000 19.926700 -179.425000 -39.081100 -0.002282 -0.040193 -0.190909 0.288750 33.923500 -40.985400 0.000008 0.000006 4.650040 10.787900 -73.857900 -11.754300 -0.000006 -0.000006 -0.001859 -0.026937 -17.668400
0.000000 0.000000 0.000000 0.000000 0.000000 -0.000000 -1.458740 89.977300 1.172050 89.350600 -2.248080 10.395500 15.735700 0.000005 -0.000001 88.159000 78.839800 -87.833400 8.984550 -0.406207 -0.000000 14.545600 -0.688978 0.739441 16.377300 -0.000001 -0.000001 6.266040 -4.464870 1.237380 6.456720 -0.000001 -0.000000 -5.225200 -3.616250 0.950774 12.994200 -0.242716 4.980390 -91.148700 5.512390 -78.209800 5.348090 -0.000007 -0.000001 -58.547800 34.971100 -28.844600 24.328600 0.000019 0.000005 11.447400 20.784900 -29.710300 22.291600 -0.000001 0.000005 9.599090 5.267500 0.965746 12.994500 -0.242716 -4.980390 88.924300 10.197100 -83.945800 -5.348130 -0.000001 -0.000004 -58.229600 36.123900 -21.222100 -24.328900 0.000322 -0.000009 1.632110 4.375830 -20.490200 -22.291500 -0.000108 -0.000004 16.152400 5.425330 -3.779590 -2.192480 -6.469440 -0.000000 -174.031000 -12.284700 -0.867513 39.081100 -0.000007 -0.000012 -0.256639 0.372797 34.544600 40.985400 -0.000006 -0.000013 -0.673764 3.308460 -72.846500 11.754300 -0.000000 0.000003 -0.000251 -0.002239 -16.661400 -2.192510 6.469440 -0.000001 174.217000 19.919100 -179.458000 -39.081100 -0.002282 -0.040193 -0.190198 0.287712 33.921700 -40.985400 0.000008 0.000006 4.695500 10.789700 -73.841700 -11.754300 -0.000006 -0.000006 -0.001815 -0.026382 -17.645900
0.000000 0.000000 0.000000 0.000000 0.000000 -0.000000 -1.476930 89.983700 1.132980 89.369900 -2.262380 10.409300 15.735700 0.000005 -0.000001 88.156300 78.831500 -87.855300 8.984550 -0.406207 -0.000000 14.562100 -0.691941 0.690803 16.377300 -0.000001 -0.000001 6.408720 -4.575850 1.296810 6.456720 -0.000001 -0.000000 -5.503690 -3.759000 0.982794 12.994200 -0.242716 4.980390 -91.134900 5.405580 -78.124200 5.348090 -0.000007 -0.000001 -58.107600 34.458400 -29.260300 24.328600 0.000019 0.000005 12.565700 21.398500 -31.421200 22.291600 -0.000001 0.000005 9.664570 5.259160 1.189080 12.994500 -0.242716 -4.980390 88.919600 10.154700 -83.894400 -5.348130 -0.000001 -0.000004 -58.217600 36.109900 -21.278700 -24.328900 0.000322 -0.000009 1.624660 4.367310 -20.440700 -22.291500 -0.000108 -0.000004 16.163900 5.425700 -3.792200 -2.192480 -6.469440 -0.000000 -174.034000 -12.312200 -0.867410 39.081100 -0.000007 -0.000012 -0.255338 0.371254 34.519500 40.985400 -0.000006 -0.000013 -0.685090 3.308090 -72.803400 11.754300 -0.000000 0.000003 -0.000251 -0.002243 -16.661600 -2.192510 6.469440 -0.000001 174.219000 19.920100 -179.474000 -39.081100 -0.002282 -0.040193 -0.189026 0.285976 33.921100 -40.985400 0.000008 0.000006 4.708970 10.782400 -73.818200 -11.754300 -0.000006 -0.000006 -0.001861 -0.026969 -17.669700
0.000000 0.000000 0.000000 0.000000 0.000000 -0.000000 -1.495510 89.987300 1.060960 89.381600 -2.201840 10.437500 15.735700 0.000005 -0.000001 88.109700 78.811400 -87.834100 8.984550 -0.406207 -0.000000 14.601500 -0.712545 0.642773 16.377300 -0.000001 -0.000001 6.595760 -4.702430 1.336570 6.456720 -0.000001 -0.000000 -5.769050 -3.962740 1.054860 12.994200 -0.242716 4.980390 -91.116900 5.269290 -78.015200 5.348090 -0.000007 -0.000001 -57.585900 33.698400 -29.847200 24.328600 0.000019 0.000005 13.389700 21.244600 -33.302900 22.291600 -0.000001 0.000005 10.116000 5.249820 1.436860 12.994500 -0.242716 -4.980390 88.916200 10.120900 -83.855500 -5.348130 -0.000001 -0.000004 -58.193200 36.068400 -21.301900 -24.328900 0.000322 -0.000009 1.642020 4.414090 -20.440600 -22.291500 -0.000108 -0.000004 16.123500 5.425000 -3.768340 -2.192480 -6.469440 -0.000000 -174.051000 -12.253800 -0.912742 39.081100 -0.000007 -0.000012 -0.254503 0.369866 34.532200 40.985400 -0.000006 -0.000013 -0.688339 3.313270 -72.748100 11.754300 -0.000000 0.000003 -0.000241 -0.002164 -16.658800 -2.192510 6.469440 -0.000001 174.222000 19.951200 -179.504000 -39.081100 -0.002282 -0.040193 -0.188908 0.285609 33.938800 -40.985400 0.000008 0.000006 4.684780 10.782000 -73.773100 -11.754300 -0.000006 -0.000006 -0.001855 -0.026881 -17.666200
0.000000 0.000000 0.000000 0.000000 0.000000 -0.000000 -1.527220 89.990700 0.996966 89.386000 -2.138470 10.490100 15.735700 0.000005 -0.000001 88.095500 78.781800 -87.838300 8.984550 -0.406207 -0.000000 14.660500 -0.720831 0.607538 16.377300 -0.000001 -0.000001 6.808460 -4.838890 1.353150 6.456720 -0.000001 -0.000000 -6.001230 -4.189540 1.072160 12.994200 -0.242716 4.980390 -91.106000 5.186600 -77.944600 5.348090 -0.000007 -0.000001 -57.127400 32.451000 -30.422900 24.328600 0.000019 0.000005 14.031100 20.530800 -35.472700 22.291600 -0.000001 0.000005 10.442200 5.241330 1.660570 12.994500 -0.242716 -4.980390 88.912000 10.102200 -83.820700 -5.348130 -0.000001 -0.000004 -58.099100 36.074200 -21.342700 -24.328900 0.000322 -0.000009 1.654480 4.445500 -20.449800 -22.291500 -0.000108 -0.000004 16.152800 5.424020 -3.735040 -2.192480 -6.469440 -0.000000 -174.034000 -12.214900 -0.916293 39.081100 -0.000007 -0.000012 -0.254871 0.370312 34.538500 40.985400 -0.000006 -0.000013 -0.698080 3.337970 -72.698600 11.754300 -0.000000 0.000003 -0.000249 -0.002228 -16.661100 -2.192510 6.469440 -0.000001 174.229000 20.009600 -179.490000 -39.081100 -0.002282 -0.040193 -0.186952 0.282481 33.959700 -40.985400 0.000008 0.000006 4.785870 10.741700 -73.772900 -11.754300 -0.000006 -0.000006 -0.001855 -0.026880 -17.666100
0.000000 0.000000 0.000000 0.000000 0.000000 -0.000000 -1.567320 89.991300 0.918312 89.391000 -2.070470 10.507300 15.735700 0.000005 -0.000001 88.117400 78.749200 -87.885800 8.984550 -0.406207 -0.000000 14.725800 -0.715810 0.556088 16.377300 -0.000001 -0.000001 6.998020 -4.999710 1.376860 6.456720 -0.000001 -0.000000 -6.219380 -4.384190 1.089510 12.994200 -0.242716 4.980390 -91.092600 5.084970 -77.857000 5.348090 -0.000007 -0.000001 -56.596900 30.906300 -31.234300 24.328600 0.000019 0.000005 14.783800 19.786500 -37.940200 22.291600 -0.000001 0.000005 10.628500 5.237780 1.753410 12.994500 -0.242716 -4.980390 88.905100 10.089200 -83.773700 -5.348130 -0.000001 -0.000004 -57.997600 36.085800 -21.454300 -24.328900 0.000322 -0.000009 1.673320 4.514200 -20.375100 -22.291500 -0.000108 -0.000004 16.209700 5.425980 -3.801450 -2.192480 -6.469440 -0.000000 -174.029000 -12.155100 -0.984161 39.081100 -0.000007 -0.000012 -0.252689 0.366746 34.567400 40.985400 -0.000006 -0.000013 -0.708122 3.372790 -72.645300 11.754300 -0.000000 0.000003 -0.000244 -0.002190 -16.659700 -2.192510 6.469440 -0.000001 174.262000 20.042100 -179.540000 -39.081100 -0.002282 -0.040193 -0.189418 0.285845 33.987300 -40.985400 0.000008 0.000006 4.742480 10.696900 -73.726000 -11.754300 -0.000006 -0.000006 -0.001831 -0.026574 -17.653700
